{
	"patcher" : 	{
		"fileversion" : 1,
		"appversion" : 		{
			"major" : 8,
			"minor" : 6,
			"revision" : 2,
			"architecture" : "x64",
			"modernui" : 1
		}
,
		"classnamespace" : "box",
		"rect" : [ 305.0, 109.0, 824.0, 583.0 ],
		"bglocked" : 0,
		"openinpresentation" : 0,
		"default_fontsize" : 10.0,
		"default_fontface" : 0,
		"default_fontname" : "Arial",
		"gridonopen" : 1,
		"gridsize" : [ 15.0, 15.0 ],
		"gridsnaponopen" : 1,
		"objectsnaponopen" : 1,
		"statusbarvisible" : 2,
		"toolbarvisible" : 1,
		"lefttoolbarpinned" : 0,
		"toptoolbarpinned" : 0,
		"righttoolbarpinned" : 0,
		"bottomtoolbarpinned" : 0,
		"toolbars_unpinned_last_save" : 0,
		"tallnewobj" : 0,
		"boxanimatetime" : 200,
		"enablehscroll" : 1,
		"enablevscroll" : 1,
		"devicewidth" : 0.0,
		"description" : "",
		"digest" : "",
		"tags" : "",
		"style" : "",
		"subpatcher_template" : "bigpatcher",
		"assistshowspatchername" : 0,
		"boxes" : [ 			{
				"box" : 				{
					"id" : "obj-33",
					"linecount" : 3,
					"maxclass" : "message",
					"numinlets" : 2,
					"numoutlets" : 1,
					"outlettype" : [ "" ],
					"patching_rect" : [ 596.0, 401.0, 164.0, 42.0 ],
					"text" : ";\rmax launchbrowser https://github.com/HighHarmonics2"
				}

			}
, 			{
				"box" : 				{
					"id" : "obj-22",
					"linecount" : 2,
					"maxclass" : "comment",
					"numinlets" : 1,
					"numoutlets" : 0,
					"patching_rect" : [ 595.0, 365.0, 165.0, 29.0 ],
					"text" : "by HighHarmonics2\nhttps://github.com/HighHarmonics2"
				}

			}
, 			{
				"box" : 				{
					"id" : "obj-11",
					"local" : 1,
					"maxclass" : "ezdac~",
					"numinlets" : 2,
					"numoutlets" : 0,
					"patching_rect" : [ 178.0, 473.0, 45.0, 45.0 ]
				}

			}
, 			{
				"box" : 				{
					"fontname" : "Arial",
					"fontsize" : 12.0,
					"id" : "obj-38",
					"maxclass" : "newobj",
					"numinlets" : 1,
					"numoutlets" : 1,
					"outlettype" : [ "" ],
					"patching_rect" : [ 79.0, 58.66666841506958, 70.0, 22.0 ],
					"text" : "loadmess 1"
				}

			}
, 			{
				"box" : 				{
					"fontface" : 1,
					"fontname" : "Arial",
					"fontsize" : 12.0,
					"id" : "obj-36",
					"maxclass" : "comment",
					"numinlets" : 1,
					"numoutlets" : 0,
					"patching_rect" : [ 361.0, 145.0, 134.0, 20.0 ],
					"text" : "FM synthesis values",
					"textjustification" : 1
				}

			}
, 			{
				"box" : 				{
					"fontname" : "Arial",
					"fontsize" : 12.0,
					"id" : "obj-34",
					"linecount" : 6,
					"maxclass" : "comment",
					"numinlets" : 1,
					"numoutlets" : 0,
					"patching_rect" : [ 438.0, 244.0, 322.0, 87.0 ],
					"text" : "FM synthesis: modulator values are multipliers:\n   carrier freq * harmonicity = mod freq\n   mod freq * modIndex = mod gain\nHarmonicity at integer values = harmonic series partials\nHarmonicity integer ratios will be more consonant\nHarmonicity at decimal values will be more dissonant"
				}

			}
, 			{
				"box" : 				{
					"fontface" : 2,
					"fontname" : "Arial",
					"fontsize" : 12.0,
					"id" : "obj-32",
					"linecount" : 4,
					"maxclass" : "comment",
					"numinlets" : 1,
					"numoutlets" : 0,
					"patching_rect" : [ 605.5, 86.000002861022949, 82.0, 60.0 ],
					"text" : "gap adds time (ms) between env loops"
				}

			}
, 			{
				"box" : 				{
					"fontface" : 2,
					"fontname" : "Verdana",
					"id" : "obj-25",
					"linecount" : 4,
					"maxclass" : "comment",
					"numinlets" : 1,
					"numoutlets" : 0,
					"patching_rect" : [ 694.0, 86.000002861022949, 69.0, 55.0 ],
					"text" : "reverb mix only changes on new shred"
				}

			}
, 			{
				"box" : 				{
					"fontface" : 1,
					"fontname" : "Arial",
					"fontsize" : 18.0,
					"id" : "obj-216",
					"maxclass" : "comment",
					"numinlets" : 1,
					"numoutlets" : 0,
					"patching_rect" : [ 312.000009298324585, 47.333334743976593, 155.0, 27.0 ],
					"text" : "ChucK => Max",
					"textjustification" : 1
				}

			}
, 			{
				"box" : 				{
					"fontname" : "Arial",
					"fontsize" : 12.0,
					"id" : "obj-31",
					"maxclass" : "comment",
					"numinlets" : 1,
					"numoutlets" : 0,
					"patching_rect" : [ 116.0, 80.666669070720673, 63.0, 20.0 ],
					"text" : "presets",
					"textjustification" : 1
				}

			}
, 			{
				"box" : 				{
					"fontname" : "Verdana",
					"id" : "obj-30",
					"maxclass" : "preset",
					"numinlets" : 1,
					"numoutlets" : 5,
					"outlettype" : [ "preset", "int", "preset", "int", "" ],
					"patching_rect" : [ 79.0, 96.000002861022949, 100.0, 40.0 ],
					"preset_data" : [ 						{
							"number" : 1,
							"data" : [ 5, "obj-63", "live.gain~", "float", -2.5, 5, "obj-52", "flonum", "float", 110.0, 5, "obj-50", "flonum", "float", 1.519999980926514, 5, "obj-2", "flonum", "float", 0.200000002980232, 5, "obj-8", "number", "int", 1000, 5, "obj-10", "flonum", "float", 3.200000047683716, 5, "obj-14", "attrui", "attr", "debug", 5, "obj-14", "attrui", "int", 1, 5, "obj-3", "number", "int", 0, 5, "obj-27", "flonum", "float", 0.200000002980232, 5, "<invalid>", "flonum", "float", -2.5 ]
						}
, 						{
							"number" : 2,
							"data" : [ 5, "obj-63", "live.gain~", "float", -2.506885051727295, 5, "obj-52", "flonum", "float", 110.0, 5, "obj-50", "flonum", "float", 2.0, 5, "obj-2", "flonum", "float", 0.200000002980232, 5, "obj-8", "number", "int", 1000, 5, "obj-10", "flonum", "float", 6.0, 5, "obj-14", "attrui", "attr", "debug", 5, "obj-14", "attrui", "int", 1, 5, "obj-3", "number", "int", 0, 5, "obj-27", "flonum", "float", 0.200000002980232 ]
						}
, 						{
							"number" : 3,
							"data" : [ 5, "obj-63", "live.gain~", "float", -2.5, 5, "obj-52", "flonum", "float", 110.0, 5, "obj-50", "flonum", "float", 2.049999952316284, 5, "obj-2", "flonum", "float", 0.200000002980232, 5, "obj-8", "number", "int", 1000, 5, "obj-10", "flonum", "float", 8.0, 5, "obj-14", "attrui", "attr", "debug", 5, "obj-14", "attrui", "int", 1, 5, "obj-3", "number", "int", 0, 5, "obj-27", "flonum", "float", 0.200000002980232, 5, "<invalid>", "flonum", "float", -2.5 ]
						}
, 						{
							"number" : 4,
							"data" : [ 5, "obj-63", "live.gain~", "float", -2.5, 5, "obj-52", "flonum", "float", 110.0, 5, "obj-50", "flonum", "float", 2.200000047683716, 5, "obj-2", "flonum", "float", 0.200000002980232, 5, "obj-8", "number", "int", 1000, 5, "obj-10", "flonum", "float", 12.0, 5, "obj-14", "attrui", "attr", "debug", 5, "obj-14", "attrui", "int", 1, 5, "obj-3", "number", "int", 0, 5, "obj-27", "flonum", "float", 0.200000002980232, 5, "<invalid>", "flonum", "float", -2.5 ]
						}
, 						{
							"number" : 5,
							"data" : [ 5, "obj-63", "live.gain~", "float", -2.5, 5, "obj-52", "flonum", "float", 110.0, 5, "obj-50", "flonum", "float", 0.509999990463257, 5, "obj-2", "flonum", "float", 0.200000002980232, 5, "obj-8", "number", "int", 500, 5, "obj-10", "flonum", "float", 22.0, 5, "obj-14", "attrui", "attr", "debug", 5, "obj-14", "attrui", "int", 1, 5, "obj-3", "number", "int", 250, 5, "obj-27", "flonum", "float", 0.200000002980232, 5, "<invalid>", "flonum", "float", -2.5 ]
						}
, 						{
							"number" : 9,
							"data" : [ 5, "obj-63", "live.gain~", "float", -2.5, 5, "obj-52", "flonum", "float", 110.0, 5, "obj-50", "flonum", "float", 3.0, 5, "obj-2", "flonum", "float", 0.200000002980232, 5, "obj-8", "number", "int", 250, 5, "obj-10", "flonum", "float", 4.0, 5, "obj-14", "attrui", "attr", "debug", 5, "obj-14", "attrui", "int", 1, 5, "obj-3", "number", "int", 500, 5, "obj-27", "flonum", "float", 0.300000011920929, 5, "<invalid>", "flonum", "float", -2.5 ]
						}
, 						{
							"number" : 10,
							"data" : [ 5, "obj-63", "live.gain~", "float", -2.5, 5, "obj-52", "flonum", "float", 110.0, 5, "obj-50", "flonum", "float", 3.0, 5, "obj-2", "flonum", "float", 0.200000002980232, 5, "obj-8", "number", "int", 250, 5, "obj-10", "flonum", "float", 14.0, 5, "obj-14", "attrui", "attr", "debug", 5, "obj-14", "attrui", "int", 1, 5, "obj-3", "number", "int", 500, 5, "obj-27", "flonum", "float", 0.300000011920929, 5, "<invalid>", "flonum", "float", -2.5 ]
						}
, 						{
							"number" : 11,
							"data" : [ 5, "obj-63", "live.gain~", "float", -2.5, 5, "obj-52", "flonum", "float", 110.0, 5, "obj-50", "flonum", "float", 3.160000085830688, 5, "obj-2", "flonum", "float", 0.200000002980232, 5, "obj-8", "number", "int", 250, 5, "obj-10", "flonum", "float", 6.5, 5, "obj-14", "attrui", "attr", "debug", 5, "obj-14", "attrui", "int", 1, 5, "obj-3", "number", "int", 250, 5, "obj-27", "flonum", "float", 0.300000011920929, 5, "<invalid>", "flonum", "float", -2.5 ]
						}
, 						{
							"number" : 12,
							"data" : [ 5, "obj-63", "live.gain~", "float", -2.5, 5, "obj-52", "flonum", "float", 110.0, 5, "obj-50", "flonum", "float", 3.309999942779541, 5, "obj-2", "flonum", "float", 0.200000002980232, 5, "obj-8", "number", "int", 2000, 5, "obj-10", "flonum", "float", 6.5, 5, "obj-14", "attrui", "attr", "debug", 5, "obj-14", "attrui", "int", 1, 5, "obj-3", "number", "int", 0, 5, "obj-27", "flonum", "float", 0.400000005960464, 5, "<invalid>", "flonum", "float", -2.5 ]
						}
, 						{
							"number" : 13,
							"data" : [ 5, "obj-63", "live.gain~", "float", -2.5, 5, "obj-52", "flonum", "float", 220.0, 5, "obj-50", "flonum", "float", 3.329999923706055, 5, "obj-2", "flonum", "float", 0.200000002980232, 5, "obj-8", "number", "int", 100, 5, "obj-10", "flonum", "float", 4.0, 5, "obj-14", "attrui", "attr", "debug", 5, "obj-14", "attrui", "int", 1, 5, "obj-3", "number", "int", 0, 5, "obj-27", "flonum", "float", 0.200000002980232, 5, "<invalid>", "flonum", "float", -2.5 ]
						}
, 						{
							"number" : 14,
							"data" : [ 5, "obj-63", "live.gain~", "float", -2.5, 5, "obj-52", "flonum", "float", 400.0, 5, "obj-50", "flonum", "float", 2.339999914169312, 5, "obj-2", "flonum", "float", 0.200000002980232, 5, "obj-8", "number", "int", 100, 5, "obj-10", "flonum", "float", 5.880000114440918, 5, "obj-14", "attrui", "attr", "debug", 5, "obj-14", "attrui", "int", 1, 5, "obj-3", "number", "int", 0, 5, "obj-27", "flonum", "float", 0.200000002980232, 5, "<invalid>", "flonum", "float", -2.5 ]
						}
, 						{
							"number" : 15,
							"data" : [ 5, "obj-63", "live.gain~", "float", -2.5, 5, "obj-52", "flonum", "float", 400.0, 5, "obj-50", "flonum", "float", 2.410000085830688, 5, "obj-2", "flonum", "float", 0.28999999165535, 5, "obj-8", "number", "int", 10, 5, "obj-10", "flonum", "float", 5.960000038146973, 5, "obj-14", "attrui", "attr", "debug", 5, "obj-14", "attrui", "int", 1, 5, "obj-3", "number", "int", 10, 5, "obj-27", "flonum", "float", 0.200000002980232, 5, "<invalid>", "flonum", "float", -2.5 ]
						}
, 						{
							"number" : 16,
							"data" : [ 5, "obj-63", "live.gain~", "float", -2.5, 5, "obj-52", "flonum", "float", 200.0, 5, "obj-50", "flonum", "float", 2.299999952316284, 5, "obj-2", "flonum", "float", 0.28999999165535, 5, "obj-8", "number", "int", 500, 5, "obj-10", "flonum", "float", 6.900000095367432, 5, "obj-14", "attrui", "attr", "debug", 5, "obj-14", "attrui", "int", 1, 5, "obj-3", "number", "int", 20, 5, "obj-27", "flonum", "float", 0.200000002980232, 5, "<invalid>", "flonum", "float", -2.5 ]
						}
 ]
				}

			}
, 			{
				"box" : 				{
					"fontname" : "Verdana",
					"id" : "obj-29",
					"linecount" : 2,
					"maxclass" : "comment",
					"numinlets" : 1,
					"numoutlets" : 0,
					"patching_rect" : [ 712.0, 151.0, 42.0, 31.0 ],
					"text" : "JCRev\nmix",
					"textjustification" : 1
				}

			}
, 			{
				"box" : 				{
					"fontname" : "Verdana",
					"fontsize" : 10.0,
					"id" : "obj-28",
					"maxclass" : "message",
					"numinlets" : 2,
					"numoutlets" : 1,
					"outlettype" : [ "" ],
					"patching_rect" : [ 714.0, 207.0, 58.0, 21.0 ],
					"text" : "revMix $1"
				}

			}
, 			{
				"box" : 				{
					"bgcolor" : [ 0.211764705882353, 0.196078431372549, 0.776470588235294, 1.0 ],
					"fontname" : "Verdana",
					"format" : 6,
					"id" : "obj-27",
					"maxclass" : "flonum",
					"maximum" : 1.0,
					"minimum" : 0.0,
					"numinlets" : 1,
					"numoutlets" : 2,
					"outlettype" : [ "", "bang" ],
					"parameter_enable" : 0,
					"patching_rect" : [ 714.0, 182.0, 41.0, 21.0 ]
				}

			}
, 			{
				"box" : 				{
					"fontface" : 1,
					"fontname" : "Arial",
					"fontsize" : 12.0,
					"id" : "obj-23",
					"linecount" : 2,
					"maxclass" : "comment",
					"numinlets" : 1,
					"numoutlets" : 0,
					"patching_rect" : [ 146.923090934753418, 152.307706832885742, 43.0, 33.0 ],
					"text" : "run\nadd ",
					"textjustification" : 1
				}

			}
, 			{
				"box" : 				{
					"fontname" : "Arial",
					"fontsize" : 12.0,
					"id" : "obj-20",
					"linecount" : 2,
					"maxclass" : "comment",
					"numinlets" : 1,
					"numoutlets" : 0,
					"patching_rect" : [ 611.0, 150.0, 71.0, 33.0 ],
					"text" : "gap duration ms",
					"textjustification" : 1
				}

			}
, 			{
				"box" : 				{
					"fontname" : "Arial",
					"fontsize" : 12.0,
					"id" : "obj-16",
					"linecount" : 2,
					"maxclass" : "comment",
					"numinlets" : 1,
					"numoutlets" : 0,
					"patching_rect" : [ 525.0, 150.0, 77.0, 33.0 ],
					"text" : "envelope duration ms",
					"textjustification" : 1
				}

			}
, 			{
				"box" : 				{
					"fontname" : "Verdana",
					"id" : "obj-15",
					"maxclass" : "comment",
					"numinlets" : 1,
					"numoutlets" : 0,
					"patching_rect" : [ 438.0, 161.0, 75.0, 19.0 ],
					"text" : "mod Index",
					"textjustification" : 1
				}

			}
, 			{
				"box" : 				{
					"fontname" : "Arial",
					"fontsize" : 12.0,
					"id" : "obj-3",
					"maxclass" : "number",
					"maximum" : 20000,
					"minimum" : 0,
					"numinlets" : 1,
					"numoutlets" : 2,
					"outlettype" : [ "", "bang" ],
					"parameter_enable" : 0,
					"patching_rect" : [ 624.0, 181.0, 52.0, 22.0 ]
				}

			}
, 			{
				"box" : 				{
					"fontname" : "Arial",
					"fontsize" : 12.0,
					"id" : "obj-7",
					"maxclass" : "message",
					"numinlets" : 2,
					"numoutlets" : 1,
					"outlettype" : [ "" ],
					"patching_rect" : [ 618.0, 206.0, 87.0, 22.0 ],
					"text" : "gapTimeMs $1"
				}

			}
, 			{
				"box" : 				{
					"attr" : "debug",
					"fontname" : "Arial",
					"fontsize" : 12.0,
					"id" : "obj-14",
					"maxclass" : "attrui",
					"numinlets" : 1,
					"numoutlets" : 1,
					"outlettype" : [ "" ],
					"parameter_enable" : 0,
					"patching_rect" : [ 211.0, 272.0, 127.0, 22.0 ]
				}

			}
, 			{
				"box" : 				{
					"id" : "obj-12",
					"maxclass" : "button",
					"numinlets" : 1,
					"numoutlets" : 1,
					"outlettype" : [ "bang" ],
					"parameter_enable" : 0,
					"patching_rect" : [ 155.0, 183.0, 24.0, 24.0 ]
				}

			}
, 			{
				"box" : 				{
					"fontname" : "Arial",
					"fontsize" : 12.0,
					"id" : "obj-9",
					"maxclass" : "message",
					"numinlets" : 2,
					"numoutlets" : 1,
					"outlettype" : [ "" ],
					"patching_rect" : [ 448.0, 206.0, 78.0, 22.0 ],
					"text" : "modIndex $1"
				}

			}
, 			{
				"box" : 				{
					"fontname" : "Arial",
					"fontsize" : 12.0,
					"format" : 6,
					"id" : "obj-10",
					"maxclass" : "flonum",
					"maximum" : 50.0,
					"minimum" : 0.1,
					"numinlets" : 1,
					"numoutlets" : 2,
					"outlettype" : [ "", "bang" ],
					"parameter_enable" : 0,
					"patching_rect" : [ 448.0, 181.0, 50.0, 22.0 ]
				}

			}
, 			{
				"box" : 				{
					"fontname" : "Arial",
					"fontsize" : 12.0,
					"id" : "obj-8",
					"maxclass" : "number",
					"maximum" : 20000,
					"minimum" : 1,
					"numinlets" : 1,
					"numoutlets" : 2,
					"outlettype" : [ "", "bang" ],
					"parameter_enable" : 0,
					"patching_rect" : [ 533.0, 181.0, 57.0, 22.0 ]
				}

			}
, 			{
				"box" : 				{
					"fontname" : "Arial",
					"fontsize" : 12.0,
					"id" : "obj-4",
					"maxclass" : "message",
					"numinlets" : 2,
					"numoutlets" : 1,
					"outlettype" : [ "" ],
					"patching_rect" : [ 533.0, 206.0, 80.0, 22.0 ],
					"text" : "envDurMs $1"
				}

			}
, 			{
				"box" : 				{
					"fontname" : "Verdana",
					"id" : "obj-152",
					"maxclass" : "comment",
					"numinlets" : 1,
					"numoutlets" : 0,
					"patching_rect" : [ 343.0, 161.0, 75.0, 19.0 ],
					"text" : "harmonicity",
					"textjustification" : 1
				}

			}
, 			{
				"box" : 				{
					"fontname" : "Arial",
					"fontsize" : 12.0,
					"id" : "obj-151",
					"maxclass" : "comment",
					"numinlets" : 1,
					"numoutlets" : 0,
					"patching_rect" : [ 284.0, 161.0, 41.0, 20.0 ],
					"text" : "gain",
					"textjustification" : 1
				}

			}
, 			{
				"box" : 				{
					"fontname" : "Arial",
					"fontsize" : 12.0,
					"id" : "obj-150",
					"linecount" : 2,
					"maxclass" : "comment",
					"numinlets" : 1,
					"numoutlets" : 0,
					"patching_rect" : [ 203.333339393138885, 152.000004529953003, 69.0, 33.0 ],
					"text" : "carrier frequency",
					"textjustification" : 1
				}

			}
, 			{
				"box" : 				{
					"fontname" : "Arial",
					"fontsize" : 12.0,
					"id" : "obj-6",
					"maxclass" : "message",
					"numinlets" : 2,
					"numoutlets" : 1,
					"outlettype" : [ "" ],
					"patching_rect" : [ 279.0, 206.0, 67.0, 22.0 ],
					"text" : "carGain $1"
				}

			}
, 			{
				"box" : 				{
					"fontname" : "Arial",
					"fontsize" : 12.0,
					"format" : 6,
					"id" : "obj-2",
					"maxclass" : "flonum",
					"maximum" : 1.0,
					"minimum" : 0.0,
					"numinlets" : 1,
					"numoutlets" : 2,
					"outlettype" : [ "", "bang" ],
					"parameter_enable" : 0,
					"patching_rect" : [ 279.0, 181.0, 42.0, 22.0 ]
				}

			}
, 			{
				"box" : 				{
					"fontname" : "Arial",
					"fontsize" : 12.0,
					"id" : "obj-49",
					"maxclass" : "message",
					"numinlets" : 2,
					"numoutlets" : 1,
					"outlettype" : [ "" ],
					"patching_rect" : [ 353.0, 206.0, 87.0, 22.0 ],
					"text" : "harmonicity $1"
				}

			}
, 			{
				"box" : 				{
					"fontname" : "Arial",
					"fontsize" : 12.0,
					"format" : 6,
					"id" : "obj-50",
					"maxclass" : "flonum",
					"maximum" : 50.0,
					"minimum" : 0.1,
					"numinlets" : 1,
					"numoutlets" : 2,
					"outlettype" : [ "", "bang" ],
					"parameter_enable" : 0,
					"patching_rect" : [ 353.0, 181.0, 52.0, 22.0 ]
				}

			}
, 			{
				"box" : 				{
					"fontname" : "Arial",
					"fontsize" : 12.0,
					"format" : 6,
					"id" : "obj-52",
					"maxclass" : "flonum",
					"maximum" : 4000.0,
					"minimum" : 0.0,
					"numinlets" : 1,
					"numoutlets" : 2,
					"outlettype" : [ "", "bang" ],
					"parameter_enable" : 0,
					"patching_rect" : [ 206.000006139278412, 183.333338797092438, 54.0, 22.0 ]
				}

			}
, 			{
				"box" : 				{
					"fontname" : "Arial",
					"fontsize" : 12.0,
					"id" : "obj-37",
					"maxclass" : "message",
					"numinlets" : 2,
					"numoutlets" : 1,
					"outlettype" : [ "" ],
					"patching_rect" : [ 70.0, 144.0, 35.0, 22.0 ],
					"text" : "reset"
				}

			}
, 			{
				"box" : 				{
					"fontname" : "Arial",
					"fontsize" : 12.0,
					"id" : "obj-21",
					"maxclass" : "message",
					"numinlets" : 2,
					"numoutlets" : 1,
					"outlettype" : [ "" ],
					"patching_rect" : [ 206.000006139278412, 207.333339512348175, 67.0, 22.0 ],
					"text" : "carFreq $1"
				}

			}
, 			{
				"box" : 				{
					"fontface" : 1,
					"fontname" : "Arial",
					"fontsize" : 12.0,
					"id" : "obj-35",
					"maxclass" : "comment",
					"numinlets" : 1,
					"numoutlets" : 0,
					"patching_rect" : [ 260.000007748603821, 80.666669070720673, 254.0, 20.0 ],
					"text" : "FM Synthesis with Modulator Envelope",
					"textjustification" : 1
				}

			}
, 			{
				"box" : 				{
					"id" : "obj-19",
					"maxclass" : "live.scope~",
					"numinlets" : 2,
					"numoutlets" : 1,
					"outlettype" : [ "bang" ],
					"patching_rect" : [ 328.0, 337.0, 230.75000587105751, 104.666669189929962 ]
				}

			}
, 			{
				"box" : 				{
					"fontname" : "Arial",
					"fontsize" : 12.0,
					"id" : "obj-18",
					"maxclass" : "newobj",
					"numinlets" : 0,
					"numoutlets" : 1,
					"outlettype" : [ "" ],
					"patching_rect" : [ 180.0, 272.0, 28.0, 22.0 ],
					"text" : "r ck"
				}

			}
, 			{
				"box" : 				{
					"fontname" : "Arial",
					"fontsize" : 12.0,
					"id" : "obj-17",
					"maxclass" : "newobj",
					"numinlets" : 1,
					"numoutlets" : 0,
					"patching_rect" : [ 392.0, 240.0, 30.0, 22.0 ],
					"text" : "s ck"
				}

			}
, 			{
				"box" : 				{
					"fontname" : "Arial",
					"fontsize" : 12.0,
					"id" : "obj-5",
					"maxclass" : "message",
					"numinlets" : 2,
					"numoutlets" : 1,
					"outlettype" : [ "" ],
					"patching_rect" : [ 107.333336532115936, 144.000004291534424, 34.0, 22.0 ],
					"text" : "info"
				}

			}
, 			{
				"box" : 				{
					"fontname" : "Arial",
					"fontsize" : 12.0,
					"id" : "obj-167",
					"linecount" : 2,
					"maxclass" : "comment",
					"numinlets" : 1,
					"numoutlets" : 0,
					"patching_rect" : [ 27.666666865348816, 185.0, 55.0, 33.0 ],
					"text" : "remove shred #",
					"textjustification" : 1
				}

			}
, 			{
				"box" : 				{
					"fontname" : "Arial",
					"fontsize" : 12.0,
					"id" : "obj-85",
					"maxclass" : "number",
					"maximum" : 20,
					"minimum" : 1,
					"numinlets" : 1,
					"numoutlets" : 2,
					"outlettype" : [ "", "bang" ],
					"parameter_enable" : 0,
					"patching_rect" : [ 81.0, 185.0, 40.0, 22.0 ]
				}

			}
, 			{
				"box" : 				{
					"fontname" : "Arial",
					"fontsize" : 12.0,
					"id" : "obj-83",
					"maxclass" : "message",
					"numinlets" : 2,
					"numoutlets" : 1,
					"outlettype" : [ "" ],
					"patching_rect" : [ 81.0, 208.0, 65.0, 22.0 ],
					"text" : "remove $1"
				}

			}
, 			{
				"box" : 				{
					"fontname" : "Arial",
					"fontsize" : 12.0,
					"id" : "obj-42",
					"maxclass" : "message",
					"numinlets" : 2,
					"numoutlets" : 1,
					"outlettype" : [ "" ],
					"patching_rect" : [ 81.0, 262.0, 64.0, 22.0 ],
					"text" : "remove all"
				}

			}
, 			{
				"box" : 				{
					"fontname" : "Arial",
					"fontsize" : 12.0,
					"id" : "obj-44",
					"maxclass" : "message",
					"numinlets" : 2,
					"numoutlets" : 1,
					"outlettype" : [ "" ],
					"patching_rect" : [ 79.0, 235.0, 71.0, 22.0 ],
					"text" : "remove last"
				}

			}
, 			{
				"box" : 				{
					"fontname" : "Arial",
					"fontsize" : 12.0,
					"id" : "obj-61",
					"maxclass" : "newobj",
					"numinlets" : 2,
					"numoutlets" : 2,
					"outlettype" : [ "signal", "signal" ],
					"patching_rect" : [ 181.0, 407.0, 136.0, 22.0 ],
					"text" : "limi~ 2 @threshold -0.5."
				}

			}
, 			{
				"box" : 				{
					"fontname" : "Verdana",
					"fontsize" : 10.555534164108179,
					"id" : "obj-63",
					"lastchannelcount" : 0,
					"maxclass" : "live.gain~",
					"numinlets" : 2,
					"numoutlets" : 5,
					"orientation" : 1,
					"outlettype" : [ "signal", "signal", "", "float", "list" ],
					"parameter_enable" : 1,
					"patching_rect" : [ 167.5, 337.0, 151.0, 50.0 ],
					"saved_attribute_attributes" : 					{
						"valueof" : 						{
							"parameter_longname" : "live.gain~[1]",
							"parameter_mmax" : 6.0,
							"parameter_mmin" : -70.0,
							"parameter_modmode" : 3,
							"parameter_shortname" : "live.gain~",
							"parameter_type" : 0,
							"parameter_unitstyle" : 4
						}

					}
,
					"varname" : "live.gain~[1]"
				}

			}
, 			{
				"box" : 				{
					"fontname" : "Arial",
					"fontsize" : 12.0,
					"id" : "obj-1",
					"maxclass" : "newobj",
					"numinlets" : 2,
					"numoutlets" : 2,
					"outlettype" : [ "signal", "signal" ],
					"patching_rect" : [ 170.0, 301.0, 107.0, 22.0 ],
					"text" : "chuck~ 2 fmenv.ck",
					"varname" : "chuck-2"
				}

			}
 ],
		"lines" : [ 			{
				"patchline" : 				{
					"destination" : [ "obj-19", 0 ],
					"midpoints" : [ 179.5, 327.333329617977142, 337.5, 327.333329617977142 ],
					"order" : 0,
					"source" : [ "obj-1", 0 ]
				}

			}
, 			{
				"patchline" : 				{
					"destination" : [ "obj-63", 1 ],
					"source" : [ "obj-1", 1 ]
				}

			}
, 			{
				"patchline" : 				{
					"destination" : [ "obj-63", 0 ],
					"midpoints" : [ 179.5, 327.333329617977142, 177.0, 327.333329617977142 ],
					"order" : 1,
					"source" : [ "obj-1", 0 ]
				}

			}
, 			{
				"patchline" : 				{
					"destination" : [ "obj-9", 0 ],
					"source" : [ "obj-10", 0 ]
				}

			}
, 			{
				"patchline" : 				{
					"destination" : [ "obj-1", 0 ],
					"midpoints" : [ 164.5, 259.666660904884338, 179.5, 259.666660904884338 ],
					"source" : [ "obj-12", 0 ]
				}

			}
, 			{
				"patchline" : 				{
					"destination" : [ "obj-1", 0 ],
					"midpoints" : [ 220.5, 298.333328723907471, 179.5, 298.333328723907471 ],
					"source" : [ "obj-14", 0 ]
				}

			}
, 			{
				"patchline" : 				{
					"destination" : [ "obj-1", 0 ],
					"midpoints" : [ 189.5, 299.999995470046997, 179.5, 299.999995470046997 ],
					"source" : [ "obj-18", 0 ]
				}

			}
, 			{
				"patchline" : 				{
					"destination" : [ "obj-6", 0 ],
					"source" : [ "obj-2", 0 ]
				}

			}
, 			{
				"patchline" : 				{
					"destination" : [ "obj-17", 0 ],
					"midpoints" : [ 215.500006139278412, 232.999993443489075, 401.5, 232.999993443489075 ],
					"source" : [ "obj-21", 0 ]
				}

			}
, 			{
				"patchline" : 				{
					"destination" : [ "obj-28", 0 ],
					"source" : [ "obj-27", 0 ]
				}

			}
, 			{
				"patchline" : 				{
					"destination" : [ "obj-17", 0 ],
					"midpoints" : [ 723.5, 234.999993503093719, 401.5, 234.999993503093719 ],
					"source" : [ "obj-28", 0 ]
				}

			}
, 			{
				"patchline" : 				{
					"destination" : [ "obj-7", 0 ],
					"source" : [ "obj-3", 0 ]
				}

			}
, 			{
				"patchline" : 				{
					"destination" : [ "obj-85", 0 ],
					"midpoints" : [ 129.0, 138.666670799255371, 138.666670799255371, 138.666670799255371, 138.666670799255371, 175.333338558673859, 90.5, 175.333338558673859 ],
					"source" : [ "obj-30", 2 ]
				}

			}
, 			{
				"patchline" : 				{
					"destination" : [ "obj-1", 0 ],
					"midpoints" : [ 79.5, 297.666662037372589, 179.5, 297.666662037372589 ],
					"source" : [ "obj-37", 0 ]
				}

			}
, 			{
				"patchline" : 				{
					"destination" : [ "obj-30", 0 ],
					"source" : [ "obj-38", 0 ]
				}

			}
, 			{
				"patchline" : 				{
					"destination" : [ "obj-17", 0 ],
					"midpoints" : [ 542.5, 234.999993503093719, 401.5, 234.999993503093719 ],
					"source" : [ "obj-4", 0 ]
				}

			}
, 			{
				"patchline" : 				{
					"destination" : [ "obj-1", 0 ],
					"midpoints" : [ 90.5, 296.666662037372589, 179.5, 296.666662037372589 ],
					"source" : [ "obj-42", 0 ]
				}

			}
, 			{
				"patchline" : 				{
					"destination" : [ "obj-1", 0 ],
					"midpoints" : [ 88.5, 259.33332759141922, 179.5, 259.33332759141922 ],
					"source" : [ "obj-44", 0 ]
				}

			}
, 			{
				"patchline" : 				{
					"destination" : [ "obj-17", 0 ],
					"midpoints" : [ 362.5, 232.333326756954193, 401.5, 232.333326756954193 ],
					"source" : [ "obj-49", 0 ]
				}

			}
, 			{
				"patchline" : 				{
					"destination" : [ "obj-1", 0 ],
					"midpoints" : [ 116.833336532115936, 176.333325088024139, 79.333329111337662, 176.333325088024139, 79.333329111337662, 296.999995350837708, 179.5, 296.999995350837708 ],
					"source" : [ "obj-5", 0 ]
				}

			}
, 			{
				"patchline" : 				{
					"destination" : [ "obj-49", 0 ],
					"source" : [ "obj-50", 0 ]
				}

			}
, 			{
				"patchline" : 				{
					"destination" : [ "obj-21", 0 ],
					"source" : [ "obj-52", 0 ]
				}

			}
, 			{
				"patchline" : 				{
					"destination" : [ "obj-17", 0 ],
					"midpoints" : [ 288.5, 232.333326756954193, 401.5, 232.333326756954193 ],
					"source" : [ "obj-6", 0 ]
				}

			}
, 			{
				"patchline" : 				{
					"destination" : [ "obj-11", 1 ],
					"midpoints" : [ 307.5, 447.199968874454498, 213.5, 447.199968874454498 ],
					"source" : [ "obj-61", 1 ]
				}

			}
, 			{
				"patchline" : 				{
					"destination" : [ "obj-11", 0 ],
					"midpoints" : [ 190.5, 420.199968874454498, 187.5, 420.199968874454498 ],
					"source" : [ "obj-61", 0 ]
				}

			}
, 			{
				"patchline" : 				{
					"destination" : [ "obj-61", 1 ],
					"midpoints" : [ 210.0, 387.199968874454498, 307.5, 387.199968874454498 ],
					"source" : [ "obj-63", 1 ]
				}

			}
, 			{
				"patchline" : 				{
					"destination" : [ "obj-61", 0 ],
					"midpoints" : [ 177.0, 387.199968874454498, 190.5, 387.199968874454498 ],
					"source" : [ "obj-63", 0 ]
				}

			}
, 			{
				"patchline" : 				{
					"destination" : [ "obj-17", 0 ],
					"midpoints" : [ 627.5, 234.333326816558838, 401.5, 234.333326816558838 ],
					"source" : [ "obj-7", 0 ]
				}

			}
, 			{
				"patchline" : 				{
					"destination" : [ "obj-4", 0 ],
					"source" : [ "obj-8", 0 ]
				}

			}
, 			{
				"patchline" : 				{
					"destination" : [ "obj-1", 0 ],
					"midpoints" : [ 90.5, 230.666660070419312, 179.5, 230.666660070419312 ],
					"source" : [ "obj-83", 0 ]
				}

			}
, 			{
				"patchline" : 				{
					"destination" : [ "obj-83", 0 ],
					"source" : [ "obj-85", 0 ]
				}

			}
, 			{
				"patchline" : 				{
					"destination" : [ "obj-17", 0 ],
					"midpoints" : [ 457.5, 233.666660130023956, 401.5, 233.666660130023956 ],
					"source" : [ "obj-9", 0 ]
				}

			}
 ],
		"parameters" : 		{
			"obj-63" : [ "live.gain~[1]", "live.gain~", 0 ],
			"parameterbanks" : 			{
				"0" : 				{
					"index" : 0,
					"name" : "",
					"parameters" : [ "-", "-", "-", "-", "-", "-", "-", "-" ]
				}

			}
,
			"inherited_shortname" : 1
		}
,
		"dependency_cache" : [ 			{
				"name" : "chuck~.mxo",
				"type" : "iLaX"
			}
 ],
		"autosave" : 0,
		"bgcolor" : [ 1.0, 1.0, 1.0, 1.0 ]
	}

}
